<svg width="40" height="44" viewBox="0 0 54 44" fill="none" xmlns="http://www.w3.org/2000/svg">
<path fill-rule="evenodd" clip-rule="evenodd" d="M0 1.46667C0 1.07768 0.189648 0.70463 0.527224 0.429577C0.8648 0.154523 1.32265 0 1.80006 0H7.20022C7.60175 9.03803e-05 7.99171 0.109562 8.30809 0.311006C8.62447 0.51245 8.84911 0.794299 8.94628 1.11173L10.4043 5.86667H52.2016C52.4659 5.86687 52.7269 5.91449 52.9661 6.00615C53.2053 6.09781 53.4167 6.23126 53.5855 6.39702C53.7542 6.56279 53.8761 6.75679 53.9424 6.96525C54.0087 7.17371 54.0179 7.39152 53.9693 7.6032L48.5691 31.0699C48.4919 31.406 48.273 31.7095 47.9502 31.928C47.6274 32.1466 47.2211 32.2664 46.8014 32.2667H14.4004C13.9808 32.2664 13.5745 32.1466 13.2517 31.928C12.9289 31.7095 12.71 31.406 12.6328 31.0699L7.23622 7.6472L5.79618 2.93333H1.80006C1.32265 2.93333 0.8648 2.77881 0.527224 2.50376C0.189648 2.2287 0 1.85565 0 1.46667ZM11.1675 8.8L15.8945 29.3333H45.3074L50.0343 8.8H11.1675ZM18.0006 32.2667C16.0909 32.2667 14.2595 32.8848 12.9092 33.985C11.5589 35.0852 10.8003 36.5774 10.8003 38.1333C10.8003 39.6893 11.5589 41.1815 12.9092 42.2817C14.2595 43.3819 16.0909 44 18.0006 44C19.9102 44 21.7416 43.3819 23.0919 42.2817C24.4422 41.1815 25.2008 39.6893 25.2008 38.1333C25.2008 36.5774 24.4422 35.0852 23.0919 33.985C21.7416 32.8848 19.9102 32.2667 18.0006 32.2667ZM43.2013 32.2667C41.2917 32.2667 39.4603 32.8848 38.11 33.985C36.7597 35.0852 36.0011 36.5774 36.0011 38.1333C36.0011 39.6893 36.7597 41.1815 38.11 42.2817C39.4603 43.3819 41.2917 44 43.2013 44C45.111 44 46.9424 43.3819 48.2927 42.2817C49.643 41.1815 50.4016 39.6893 50.4016 38.1333C50.4016 36.5774 49.643 35.0852 48.2927 33.985C46.9424 32.8848 45.111 32.2667 43.2013 32.2667ZM18.0006 35.2C17.0457 35.2 16.13 35.509 15.4549 36.0592C14.7797 36.6093 14.4004 37.3554 14.4004 38.1333C14.4004 38.9113 14.7797 39.6574 15.4549 40.2075C16.13 40.7576 17.0457 41.0667 18.0006 41.0667C18.9554 41.0667 19.8711 40.7576 20.5462 40.2075C21.2214 39.6574 21.6007 38.9113 21.6007 38.1333C21.6007 37.3554 21.2214 36.6093 20.5462 36.0592C19.8711 35.509 18.9554 35.2 18.0006 35.2ZM43.2013 35.2C42.2465 35.2 41.3308 35.509 40.6557 36.0592C39.9805 36.6093 39.6012 37.3554 39.6012 38.1333C39.6012 38.9113 39.9805 39.6574 40.6557 40.2075C41.3308 40.7576 42.2465 41.0667 43.2013 41.0667C44.1561 41.0667 45.0718 40.7576 45.747 40.2075C46.4221 39.6574 46.8014 38.9113 46.8014 38.1333C46.8014 37.3554 46.4221 36.6093 45.747 36.0592C45.0718 35.509 44.1561 35.2 43.2013 35.2Z" fill="#fff"/>
</svg>
